<svg width="150px" height="150px" viewBox="0 0 3.75 3.75" xmlns="http://www.w3.org/2000/svg"><path d="M3.563 0.47a0.28 0.28 0 0 0 -0.28 -0.283H0.47a0.28 0.28 0 0 0 -0.283 0.283v2.813a0.28 0.28 0 0 0 0.283 0.28H1.875v-0.375H0.655a0.092 0.092 0 0 1 -0.075 -0.147L1.245 2.28A0.092 0.092 0 0 1 1.38 2.277l0.307 0.348 0.573 -0.897a0.092 0.092 0 0 1 0.158 0.005l0.135 0.235A1.123 1.123 0 0 1 3 1.875h0.563V0.47zm-2.155 0.375c0.208 0 0.375 0.17 0.375 0.375s-0.17 0.375 -0.375 0.375S1.032 1.425 1.032 1.22s0.17 -0.375 0.375 -0.375zm2.29 2.022a0.188 0.188 0 0 0 -0.135 -0.055h-0.375v-0.375a0.188 0.188 0 0 0 -0.375 0v0.375h-0.375a0.188 0.188 0 0 0 0 0.375h0.375v0.375a0.188 0.188 0 1 0 0.375 0v-0.375h0.375a0.188 0.188 0 0 0 0.133 -0.32z" fill="#5C5F62"/></svg>