<svg width="465" height="465" viewBox="0 0 465 465" fill="none" xmlns="http://www.w3.org/2000/svg">
<path d="M465 355.631H0V355.863H465V355.631Z" fill="#EBEBEB"/>
<path d="M418.408 370.6H398.247V370.832H418.408V370.6Z" fill="#EBEBEB"/>
<path d="M320.54 365.775H288.819V366.008H320.54V365.775Z" fill="#EBEBEB"/>
<path d="M410.233 361.965H368.825V362.197H410.233V361.965Z" fill="#EBEBEB"/>
<path d="M160.904 366.652H150.545V366.885H160.904V366.652Z" fill="#EBEBEB"/>
<path d="M142.266 366.652H106.564V366.885H142.266V366.652Z" fill="#EBEBEB"/>
<path d="M87.4219 362.727H61.6655V362.959H87.4219V362.727Z" fill="#EBEBEB"/>
<path d="M200.947 186.818L201.365 174.596L193.862 172.145C193.553 167.969 192.855 163.846 191.862 159.873L198.221 155.184L193.901 143.705L186.035 144.338C184.16 140.626 181.957 137.095 179.488 133.782L183.562 126.981L175.185 118.043L168.152 121.644C164.985 118.952 161.646 116.514 158.072 114.359L159.211 106.552L148.053 101.488L142.941 107.479C139.046 106.215 135.011 105.271 130.836 104.644L128.935 96.9917L116.681 96.5723L114.262 104.076C110.053 104.416 105.962 105.083 101.99 106.077L97.2677 99.7482L85.7896 104.036L86.4239 111.903C82.7113 113.81 79.181 116.012 75.8684 118.482L69.0998 114.409L60.1291 122.753L63.7291 129.817C61.0386 132.953 58.5992 136.325 56.4742 139.9L48.6696 138.729L43.5741 149.885L49.5968 154.999C48.3339 158.894 47.3546 162.961 46.7612 167.105L39.0757 169.036L38.6572 181.257L46.1921 183.711C46.4999 187.918 47.1993 192.011 48.1934 195.982L41.835 200.671L46.1549 212.151L54.0208 211.516C55.8957 215.227 58.0989 218.758 60.568 222.071L56.4928 228.872L64.8711 237.811L71.9029 234.209C75.0388 236.901 78.4101 239.341 81.9841 241.497L80.8123 249.301L91.9704 254.364L97.1152 248.374C101.01 249.638 105.045 250.583 109.221 251.21L111.122 258.862L123.376 259.281L125.796 251.777C130.004 251.438 134.095 250.771 138.067 249.777L142.757 256.104L154.235 251.815L153.632 243.951C157.346 242.045 160.843 239.84 164.188 237.371L170.957 241.446L179.927 233.101L176.328 226.037C179.018 222.901 181.458 219.529 183.583 215.954L191.387 217.125L196.483 205.968L190.459 200.855C191.723 196.96 192.701 192.926 193.295 188.75L200.947 186.818ZM118.367 226.409C91.6031 225.492 70.6455 203.047 71.5625 176.283C72.4804 149.486 94.925 128.531 121.689 129.448C148.452 130.365 169.41 152.808 168.492 179.604C167.575 206.368 145.13 227.326 118.367 226.409Z" fill="#EBEBEB"/>
<path d="M410.09 146.405L413.172 143.527L411.941 141.099C412.884 140.006 413.719 138.83 414.445 137.619L417.139 138.027L418.885 134.174L416.812 132.411C417.26 131.049 417.584 129.651 417.79 128.241L420.442 127.576L420.579 123.354L417.986 122.517C417.87 121.088 417.65 119.679 417.304 118.283L419.486 116.657L418 112.702L415.292 112.916C414.651 111.657 413.897 110.443 413.033 109.273L414.435 106.943L411.549 103.853L409.128 105.092C408.019 104.148 406.859 103.313 405.648 102.587L406.04 99.8919L402.195 98.1388L400.432 100.212C399.062 99.771 397.664 99.4473 396.254 99.2418L395.596 96.5978L391.374 96.4453L390.529 99.0456C389.108 99.1544 387.692 99.3813 386.302 99.7356L384.684 97.5474L380.722 99.0251L380.943 101.741C379.685 102.382 378.454 103.136 377.299 104.002L374.955 102.598L371.873 105.477L373.111 107.912C372.161 109.013 371.333 110.181 370.607 111.392L367.913 110.985L366.166 114.838L368.239 116.601C367.791 117.964 367.467 119.361 367.262 120.771L364.609 121.436L364.473 125.659L367.065 126.495C367.174 127.917 367.401 129.334 367.746 130.731L365.558 132.348L367.044 136.303L369.76 136.097C370.401 137.355 371.155 138.569 372.021 139.741L370.618 142.07L373.504 145.161L375.924 143.921C377.032 144.864 378.193 145.699 379.404 146.425L379.005 149.112L382.849 150.865L384.62 148.801C385.991 149.241 387.381 149.557 388.799 149.77L389.456 152.414L393.678 152.566L394.523 149.966C395.944 149.857 397.36 149.63 398.751 149.276L400.368 151.465L404.332 149.987L404.109 147.272C405.367 146.63 406.59 145.885 407.753 145.012L410.09 146.405ZM388.127 128.613C385.86 126.185 385.99 122.376 388.418 120.109C390.849 117.839 394.658 117.969 396.925 120.398C399.192 122.827 399.062 126.635 396.631 128.905C394.203 131.172 390.395 131.041 388.127 128.613Z" fill="#EBEBEB"/>
<path d="M297.59 271.874L287.973 265.232C287.97 265.224 287.97 265.216 287.967 265.208C287.016 261.714 285.703 258.351 284.099 255.19L286.563 245.52L272.613 230.58L262.793 232.377C259.752 230.563 256.488 229.025 253.071 227.837C253.063 227.835 253.054 227.833 253.047 227.83L247.076 217.776L226.648 217.076L220.006 226.693C219.994 226.696 219.981 226.7 219.968 226.703C216.478 227.654 213.118 228.963 209.961 230.566L200.296 228.102L185.356 242.053L187.15 251.854C187.149 251.857 187.147 251.858 187.145 251.862C185.292 254.937 183.789 258.202 182.602 261.621L172.55 267.589L171.85 288.018L181.476 294.665C182.426 298.183 183.697 301.539 185.332 304.726C185.333 304.728 185.333 304.728 185.334 304.73L182.877 314.37L196.827 329.309L206.586 327.523C209.666 329.344 212.934 330.884 216.393 332.073C216.396 332.075 216.398 332.075 216.402 332.075L222.362 342.114L242.79 342.814L249.427 333.203C252.958 332.254 256.323 330.943 259.518 329.336C259.518 329.336 259.52 329.336 259.521 329.335L269.143 331.786L284.082 317.837L282.289 308.035C284.141 304.959 285.644 301.693 286.832 298.274L286.833 298.272L296.888 292.3L297.59 271.874ZM233.929 302.926C221.231 302.491 211.312 291.83 211.745 279.169C212.18 266.47 222.805 256.55 235.503 256.984C248.201 257.42 258.122 268.044 257.687 280.742C257.254 293.404 246.628 303.362 233.929 302.926Z" fill="#EBEBEB"/>
<path d="M319.5 213.859C319.477 213.859 319.455 213.859 319.433 213.858L303.328 213.307C302.659 213.284 302.048 212.921 301.707 212.347L297.37 205.044C295.065 204.208 292.793 203.154 290.597 201.903L283.616 203.18C282.957 203.304 282.284 203.078 281.827 202.588L270.829 190.812C270.372 190.322 270.197 189.634 270.361 188.986L272.117 182.095C271.05 179.912 270.157 177.581 269.458 175.148L262.454 170.311C261.904 169.931 261.585 169.296 261.607 168.628L262.159 152.524C262.181 151.855 262.544 151.244 263.118 150.903L270.434 146.559C271.301 144.183 272.353 141.922 273.568 139.818L272.285 132.812C272.165 132.155 272.388 131.48 272.877 131.024L284.655 120.025C285.144 119.567 285.833 119.392 286.481 119.557L293.395 121.319C295.632 120.231 297.956 119.335 300.323 118.649L305.156 111.651C305.536 111.1 306.16 110.76 306.839 110.805L322.944 111.357C323.613 111.379 324.224 111.741 324.565 112.317L328.91 119.632C331.218 120.478 333.473 121.529 335.631 122.768L342.657 121.481C343.316 121.361 343.989 121.583 344.446 122.073L355.444 133.852C355.901 134.341 356.076 135.029 355.912 135.678L354.149 142.595C355.238 144.832 356.133 147.156 356.82 149.52L363.818 154.352C364.368 154.731 364.687 155.367 364.665 156.035L364.114 172.141C364.091 172.81 363.729 173.421 363.154 173.762L355.836 178.108C354.968 180.482 353.918 182.742 352.705 184.844L353.988 191.852C354.108 192.51 353.885 193.185 353.396 193.641L341.618 204.637C341.129 205.095 340.442 205.271 339.793 205.105L332.91 203.351C330.642 204.446 328.305 205.342 325.946 206.02L321.118 213.013C320.749 213.543 320.144 213.859 319.5 213.859ZM304.535 209.418L318.493 209.897L323.116 203.203C323.38 202.821 323.773 202.544 324.222 202.423C326.794 201.732 329.345 200.753 331.806 199.516C331.811 199.514 331.815 199.512 331.819 199.509C332.229 199.307 332.707 199.245 333.175 199.367L339.721 201.034L349.929 191.503L348.708 184.831C348.622 184.36 348.711 183.875 348.957 183.464C350.304 181.229 351.446 178.777 352.352 176.178C352.501 175.717 352.816 175.329 353.227 175.087L360.223 170.932L360.701 156.973L354.003 152.346C353.652 152.104 353.39 151.754 353.255 151.352C353.238 151.302 353.223 151.249 353.21 151.195C352.51 148.63 351.535 146.109 350.314 143.703C350.098 143.278 350.045 142.79 350.162 142.329L351.839 135.746L342.307 125.536L335.621 126.76C335.152 126.846 334.67 126.758 334.261 126.514C331.936 125.127 329.481 123.98 326.965 123.105C326.822 123.056 326.678 122.99 326.555 122.914C326.283 122.747 326.057 122.517 325.895 122.244L321.736 115.242L307.778 114.763L303.151 121.462C302.876 121.861 302.464 122.142 301.995 122.255C299.412 122.963 296.901 123.934 294.505 125.149C294.08 125.365 293.591 125.419 293.131 125.301L286.552 123.623L276.343 133.156L277.564 139.827C277.641 140.246 277.579 140.678 277.389 141.059C277.362 141.112 277.332 141.165 277.301 141.217C275.951 143.46 274.807 145.919 273.903 148.526C273.75 148.963 273.449 149.333 273.051 149.569L266.05 153.727L265.572 167.685L272.277 172.317C272.659 172.58 272.935 172.971 273.057 173.42C273.78 176.094 274.753 178.634 275.95 180.969C276.018 181.102 276.072 181.244 276.109 181.391C276.188 181.706 276.187 182.036 276.107 182.351L274.435 188.912L283.967 199.119L290.605 197.905C291.071 197.82 291.551 197.907 291.958 198.147C294.324 199.546 296.792 200.692 299.293 201.555C299.745 201.698 300.137 202.004 300.385 202.424L304.535 209.418ZM313.157 191.781C312.813 191.781 312.47 191.774 312.124 191.762C295.899 191.206 283.151 177.555 283.708 161.33C284.264 145.106 297.938 132.362 314.14 132.913C330.365 133.469 343.112 147.12 342.556 163.346C342.287 171.195 338.976 178.476 333.232 183.845C327.735 188.984 320.64 191.781 313.157 191.781ZM313.122 136.823C299.452 136.823 288.105 147.7 287.633 161.465C287.151 175.524 298.198 187.355 312.259 187.837C319.072 188.064 325.568 185.634 330.551 180.976C335.529 176.322 338.399 170.013 338.632 163.211C339.113 149.151 328.066 137.32 314.006 136.838C313.71 136.829 313.415 136.823 313.122 136.823Z" fill="#EBEBEB"/>
<path d="M356.598 97.9514L349.926 96.1602L348.135 89.4893L350.748 86.877L353.503 92.5834L359.21 95.34L356.598 97.9514Z" fill="#E0E0E0"/>
<path d="M357.012 93.4844C358.228 92.2689 358.228 90.288 357.012 89.0725C355.796 87.857 353.825 87.8663 352.609 89.0818L355.928 84.1035L360.379 86.3532L361.354 91.0302L357.012 93.4844Z" fill="#E0E0E0"/>
<path d="M350.221 87.4027L355.11 82.5137L361.781 84.3049L363.573 90.9767L358.684 95.8657L352.012 94.0736L350.221 87.4027ZM359.098 91.3998C360.314 90.1843 360.314 88.2034 359.098 86.9879C357.883 85.7724 355.911 85.7817 354.695 86.9972C353.48 88.2127 353.48 90.1759 354.695 91.3905C355.911 92.606 357.883 92.6153 359.098 91.3998Z" fill="#F0F0F0"/>
<path d="M83.9054 275.939L87.485 274.977L88.4466 271.398L87.0451 269.996L85.5664 273.059L82.5039 274.537L83.9054 275.939Z" fill="#E0E0E0"/>
<path d="M83.6831 273.543C83.0312 272.891 83.0312 271.828 83.6831 271.175C84.3351 270.523 85.3934 270.528 86.0453 271.18L84.2644 268.508L81.8761 269.715L81.3525 272.224L83.6831 273.543Z" fill="#E0E0E0"/>
<path d="M87.3278 270.28L84.7043 267.656L81.1247 268.618L80.1631 272.198L82.7866 274.822L86.3662 273.86L87.3278 270.28ZM82.5634 272.424C81.9115 271.772 81.9115 270.709 82.5634 270.057C83.2153 269.405 84.2737 269.409 84.9256 270.061C85.5775 270.713 85.5775 271.767 84.9256 272.419C84.2746 273.072 83.2163 273.076 82.5634 272.424Z" fill="#F0F0F0"/>
<path d="M71.0173 79.667L73.9887 82.6384C74.7624 83.4121 76.0282 83.4121 76.8019 82.6384C77.5757 81.8646 77.5757 80.5989 76.8019 79.8251L73.8306 76.8538C73.0568 76.08 71.7911 76.08 71.0173 76.8538C70.2436 77.6275 70.2436 78.8942 71.0173 79.667Z" fill="#F0F0F0"/>
<path d="M68.9239 72.2664C71.2136 71.4443 73.6957 72.5194 74.4676 74.6686C75.2395 76.8179 74.0091 79.2266 71.7195 80.0496C69.4298 80.8717 66.9477 79.7967 66.1758 77.6474C65.4039 75.4982 66.6342 73.0895 68.9239 72.2664Z" fill="#E0E0E0"/>
<path d="M65.6861 77.1506L66.1167 78.3496L74.9582 75.1741L74.5276 73.9751L65.6861 77.1506Z" fill="#F0F0F0"/>
<path d="M232.5 397.631C332.086 397.631 412.817 392.916 412.817 387.101C412.817 381.285 332.086 376.57 232.5 376.57C132.914 376.57 52.1831 381.285 52.1831 387.101C52.1831 392.916 132.914 397.631 232.5 397.631Z" fill="#F5F5F5"/>
<path d="M80.6457 112.2C79.7148 108.106 80.1305 104.658 81.8938 101.856C83.657 99.0557 86.5754 97.1929 90.6479 96.2667C94.8236 95.3171 98.2952 95.7068 101.064 97.4357C103.832 99.1636 105.676 102.047 106.594 106.086C107.26 109.018 107.313 111.534 106.754 113.635C106.193 115.737 105.099 117.522 103.472 118.989C101.843 120.458 99.6372 121.507 96.8537 122.14C94.0247 122.784 91.5807 122.866 89.5216 122.387C87.4626 121.907 85.6352 120.822 84.0393 119.133C82.4434 117.444 81.3116 115.134 80.6457 112.2ZM88.4056 110.473C88.9813 113.007 89.8657 114.719 91.0589 115.611C92.2512 116.504 93.6573 116.765 95.2783 116.396C96.944 116.019 98.1102 115.184 98.7761 113.893C99.4419 112.602 99.4568 110.552 98.8179 107.747C98.2813 105.385 97.4127 103.768 96.212 102.894C95.0114 102.021 93.596 101.77 91.9647 102.141C90.4014 102.497 89.2724 103.336 88.5768 104.657C87.8811 105.98 87.8244 107.918 88.4056 110.473Z" fill="#525252"/>
<path d="M110.291 109.132C109.661 106.36 110.077 103.862 111.54 101.64C113.002 99.4168 115.325 97.9437 118.509 97.2211C122.148 96.3934 125.137 96.823 127.477 98.5119C129.357 99.8725 130.581 101.796 131.146 104.283C131.782 107.079 131.376 109.579 129.927 111.786C128.479 113.993 126.118 115.469 122.843 116.213C119.923 116.877 117.393 116.673 115.253 115.599C112.622 114.266 110.968 112.11 110.291 109.132ZM117.27 107.528C117.638 109.147 118.238 110.271 119.071 110.899C119.904 111.525 120.816 111.725 121.808 111.499C122.812 111.271 123.549 110.701 124.02 109.79C124.49 108.88 124.534 107.579 124.151 105.892C123.793 104.318 123.201 103.219 122.376 102.596C121.55 101.974 120.658 101.772 119.7 101.99C118.684 102.221 117.935 102.803 117.451 103.735C116.967 104.666 116.906 105.931 117.27 107.528Z" fill="#525252"/>
<path d="M138.184 119.566L132.48 94.477L139 92.9936L139.611 95.6804C140.256 94.3468 140.909 93.3954 141.571 92.8244C142.464 92.058 143.527 91.5335 144.76 91.2545C147.19 90.7012 149.28 91.2043 151.033 92.7611C152.785 94.3189 153.972 96.4662 154.594 99.2051C155.282 102.229 155.082 104.7 153.995 106.622C152.907 108.542 151.258 109.755 149.044 110.258C147.972 110.502 146.953 110.542 145.985 110.377C145.017 110.213 144.104 109.852 143.245 109.291L145.217 117.967L138.184 119.566ZM141.54 102.029C141.866 103.466 142.411 104.464 143.174 105.023C143.937 105.582 144.78 105.755 145.705 105.546C146.515 105.362 147.118 104.873 147.513 104.082C147.909 103.29 147.925 102.096 147.563 100.498C147.228 99.0256 146.697 98.0101 145.97 97.4502C145.242 96.8885 144.468 96.7025 143.646 96.8885C142.757 97.0912 142.094 97.6083 141.659 98.4378C141.224 99.2693 141.184 100.465 141.54 102.029Z" fill="#525252"/>
<path d="M157.574 102.578L164.34 100.356C164.811 101.112 165.345 101.609 165.939 101.847C166.532 102.084 167.257 102.105 168.113 101.911C169.048 101.698 169.727 101.334 170.151 100.818C170.483 100.431 170.598 100.016 170.497 99.5707C170.383 99.0694 170.032 98.7411 169.446 98.5877C169.025 98.4798 167.973 98.4677 166.288 98.5505C163.774 98.6798 162.006 98.6705 160.982 98.5263C159.959 98.3803 159.028 97.9544 158.189 97.2457C157.35 96.538 156.806 95.6359 156.558 94.5422C156.286 93.3453 156.4 92.2358 156.898 91.2109C157.398 90.1861 158.208 89.3212 159.332 88.6162C160.455 87.9113 162.044 87.3254 164.097 86.8585C166.265 86.3656 167.903 86.1685 169.01 86.2633C170.118 86.36 171.096 86.6772 171.945 87.2157C172.794 87.7551 173.58 88.5651 174.306 89.6485L167.848 91.8006C167.545 91.2565 167.163 90.8938 166.701 90.7115C166.07 90.4697 165.367 90.4372 164.591 90.6148C163.803 90.7934 163.262 91.0631 162.966 91.4239C162.671 91.7847 162.567 92.1651 162.659 92.5641C162.759 93.0086 163.064 93.2923 163.572 93.416C164.08 93.5415 165.119 93.5192 166.689 93.3546C169.064 93.0914 170.87 93.0635 172.106 93.2746C173.342 93.4848 174.358 93.9554 175.154 94.6854C175.949 95.4155 176.465 96.299 176.702 97.3368C176.94 98.3859 176.855 99.4777 176.448 100.612C176.039 101.748 175.221 102.763 173.991 103.661C172.761 104.556 170.971 105.273 168.621 105.808C165.301 106.563 162.828 106.626 161.204 106C159.58 105.373 158.37 104.233 157.574 102.578Z" fill="#525252"/>
<path d="M180.279 79.576L187.913 79.5332L187.946 85.395L186.538 97.179L181.818 97.2051L180.312 85.4378L180.279 79.576ZM180.652 99.0018L187.777 98.9618L187.813 105.262L180.688 105.302L180.652 99.0018Z" fill="#525252"/>
<path d="M119.672 159.571C119.617 159.571 119.56 159.561 119.504 159.539C115.318 157.918 112.814 156.334 111.514 154.432C110.569 154.621 109.511 154.496 108.508 154.019C107.533 153.556 106.595 152.746 105.921 151.58C105.294 152.065 104.518 152.197 103.666 151.929C102.721 151.632 101.738 150.836 100.921 149.687C100.401 150.062 99.8681 150.119 99.4775 150.087C96.7126 149.862 92.9666 144.358 92.6978 138.492C92.6857 138.237 92.8847 138.018 93.1414 138.008C93.3925 137.986 93.6157 138.194 93.6269 138.451C93.8817 144.017 97.4482 148.989 99.5537 149.16C99.8951 149.194 100.181 149.087 100.421 148.901C99.1576 146.685 98.5019 143.525 99.4691 140.148C100.269 137.353 100.976 136.26 101.824 136.463C103.426 136.862 103.216 142.947 102.367 146.961C102.174 147.871 101.897 148.524 101.581 148.991C102.315 150.075 103.184 150.804 103.946 151.044C104.627 151.258 105.131 151.076 105.503 150.722C104.772 148.921 104.62 146.468 105.613 143.339C106.918 139.22 107.444 139.108 107.758 139.042C107.98 138.995 108.201 139.068 108.358 139.247C109.217 140.217 108.191 146.614 107.108 149.778C106.968 150.189 106.793 150.549 106.59 150.854C107.168 151.986 108.019 152.757 108.909 153.18C109.623 153.519 110.356 153.643 111.023 153.581C110.939 153.405 110.863 153.226 110.796 153.045C110.058 151.048 110.419 148.743 111.898 145.997C112.879 144.176 113.679 143.327 114.415 143.326C114.634 143.326 115.044 143.407 115.333 143.942C116.144 145.438 115.557 150.377 113.954 152.827C113.576 153.405 113.055 153.843 112.449 154.127C113.695 155.766 116.061 157.209 119.842 158.675C120.081 158.768 120.2 159.037 120.108 159.276C120.035 159.458 119.858 159.571 119.672 159.571ZM114.414 144.254C114.411 144.254 113.889 144.257 112.715 146.436C111.37 148.933 111.027 150.989 111.667 152.72C111.745 152.932 111.838 153.139 111.946 153.343C112.443 153.131 112.868 152.785 113.175 152.317C114.477 150.326 115.101 146.236 114.616 144.638C114.517 144.31 114.415 144.254 114.414 144.254ZM107.744 140.336C107.504 140.787 107.101 141.716 106.498 143.618C105.7 146.136 105.695 148.16 106.14 149.707C106.171 149.629 106.2 149.551 106.226 149.474C107.32 146.276 107.853 141.872 107.744 140.336ZM101.619 137.406C101.462 137.55 101.01 138.136 100.362 140.402C99.5072 143.39 100.034 146.116 101.038 148.07C101.231 147.667 101.364 147.202 101.457 146.767C102.421 142.199 102.14 138.067 101.619 137.406Z" fill="#525252"/>
<path d="M155.029 208.318C153.611 208.318 152.119 207.995 150.787 207.212C150.566 207.081 150.492 206.798 150.622 206.575C150.751 206.353 151.037 206.281 151.258 206.409C154.575 208.357 158.863 206.998 159.746 205.578C159.848 205.412 159.942 205.201 159.883 204.954C158.57 205.093 156.956 204.745 155.111 203.591C152.744 202.111 152.562 201.671 152.577 201.32C152.586 201.112 152.704 200.93 152.894 200.834C153.82 200.364 158.013 202.297 159.762 203.447C159.991 203.597 160.184 203.76 160.34 203.932C161.113 203.744 161.712 203.345 162.11 202.867C162.383 202.539 162.566 202.182 162.656 201.824C162.595 201.833 162.532 201.841 162.47 201.846C160.983 201.996 159.491 201.358 157.903 199.89C156.811 198.881 156.387 198.185 156.528 197.633C156.573 197.458 156.72 197.145 157.197 197.026C158.483 196.706 161.658 198.059 162.956 199.483C163.248 199.803 163.447 200.18 163.553 200.584C164.767 200.014 166.05 198.735 167.57 196.612C167.72 196.403 168.01 196.356 168.219 196.505C168.428 196.654 168.476 196.945 168.327 197.154C166.57 199.609 165.106 201 163.634 201.567C163.577 202.222 163.306 202.888 162.826 203.464C162.355 204.029 161.667 204.514 160.798 204.777C160.891 205.195 160.807 205.638 160.537 206.071C159.752 207.333 157.503 208.318 155.029 208.318ZM154.203 201.868C154.516 202.098 154.964 202.403 155.604 202.804C156.866 203.594 157.99 203.957 158.952 204.034C157.411 203.079 155.395 202.233 154.203 201.868ZM157.449 197.917C157.501 198.062 157.707 198.444 158.533 199.208C159.915 200.486 161.173 201.054 162.375 200.923C162.474 200.913 162.573 200.899 162.673 200.878C162.607 200.595 162.472 200.334 162.269 200.111C160.961 198.676 158.084 197.767 157.449 197.917Z" fill="#525252"/>
<path d="M167.346 207.042L152.855 209.674L139.698 137.867L111.738 142.946L66.1787 223.855L71.0705 250.553L129.509 239.938L133.51 261.776L161.469 256.697L157.468 234.861L171.96 232.228L167.346 207.042ZM94.0173 220.363L118.159 177.986L124.896 214.754L94.0173 220.363Z" fill="#4371B7"/>
<path d="M284.05 132.983C283.508 128.022 282.518 123.615 281.077 119.76C279.636 115.905 277.468 112.127 274.576 108.424C271.684 104.722 267.745 101.508 262.761 98.7841C257.776 96.061 251.198 94.1648 243.024 93.0999C226.012 90.8837 212.751 93.9044 203.236 102.158C193.721 110.414 187.461 126.227 184.452 149.598C183.228 159.104 182.925 167.891 183.544 175.959C184.16 184.027 185.641 190.517 187.987 195.427C191.197 202.327 195.739 207.837 201.611 211.955C207.482 216.074 215.525 218.8 225.744 220.13C243.97 222.505 257.475 219.007 266.263 209.634C275.05 200.262 280.88 184.419 283.752 162.11C285.035 152.156 285.133 142.448 284.05 132.983Z" fill="#4371B7"/>
<path d="M227.584 206.017L227.586 206.018C229.931 206.324 232.183 206.514 234.279 206.585C234.286 206.585 234.293 206.586 234.3 206.586C234.32 206.587 234.34 206.588 234.359 206.589C244.888 206.937 251.601 204.469 255.885 199.899L255.885 199.899C262.231 193.132 267.087 180.134 269.642 160.292C270.772 151.51 270.859 142.865 269.907 134.546L269.906 134.535L269.905 134.525C269.485 130.681 268.743 127.403 267.748 124.744L267.748 124.743C266.846 122.33 265.394 119.783 263.364 117.185L263.364 117.185C261.767 115.141 259.326 113.122 255.94 111.272C252.702 109.503 247.816 108.074 241.187 107.211L227.584 206.017ZM227.584 206.017C219.383 204.949 213.518 202.922 209.786 200.304L209.785 200.303M227.584 206.017L209.785 200.303M209.785 200.303C205.987 197.64 203.082 194.132 200.893 189.424L200.886 189.408M209.785 200.303L200.886 189.408M200.886 189.408L200.878 189.392M200.886 189.408L200.878 189.392M200.878 189.392L200.833 189.296L200.829 189.29M200.878 189.392L200.829 189.29M200.829 189.29C199.347 186.189 198.236 181.421 197.735 174.874L197.735 174.873M200.829 189.29L197.735 174.873M197.735 174.873C197.197 167.857 197.467 159.969 198.568 151.415C201.832 126.059 208.471 116.457 212.564 112.906L212.564 112.906M197.735 174.873L212.564 112.906M212.564 112.906C217.595 108.541 224.618 106.316 234.664 106.66L212.564 112.906ZM234.665 106.66C236.719 106.73 238.914 106.915 241.187 107.211L234.665 106.66Z" fill="#EFEFEF" stroke="#4371B7" stroke-width="8"/>
<path d="M300.43 110.786L300.915 109.617C300.915 109.617 300.916 109.616 300.917 109.616C301.265 109.436 301.592 109.22 301.89 108.979L302.97 109.02L304.235 107.204L303.822 106.205C303.944 105.843 304.034 105.462 304.081 105.074C304.081 105.073 304.081 105.072 304.081 105.071L305.009 104.211L304.62 102.032L303.451 101.548C303.45 101.547 303.45 101.545 303.449 101.544C303.269 101.196 303.054 100.871 302.813 100.572L302.854 99.4935L301.038 98.2287L300.041 98.6407H300.04C299.673 98.5143 299.294 98.4296 298.905 98.3813L298.045 97.4531L295.866 97.8428L295.381 99.0127C295.03 99.1931 294.704 99.4043 294.404 99.6498L293.328 99.6089L292.064 101.424L292.474 102.417C292.351 102.784 292.262 103.164 292.215 103.558L291.288 104.417L291.678 106.595L292.846 107.08C293.026 107.432 293.242 107.758 293.485 108.06L293.444 109.134L295.259 110.399L296.256 109.986C296.623 110.112 297.004 110.197 297.393 110.245L298.253 111.174L300.43 110.786ZM295.697 104.753C295.455 103.399 296.358 102.107 297.708 101.865C299.062 101.623 300.353 102.522 300.596 103.876C300.838 105.23 299.938 106.521 298.585 106.763C297.235 107.005 295.94 106.107 295.697 104.753Z" fill="#4371B7"/>
<path d="M274.914 104.615L274.204 104.015C275.439 102.553 277.19 100.7 279.791 99.3379L280.223 100.163C277.449 101.615 275.673 103.717 274.914 104.615Z" fill="#4371B7"/>
<path d="M282.34 99.3272L281.972 98.4716C285.49 96.965 289.166 96.3772 292.889 96.7232L292.803 97.6495C289.232 97.3091 285.713 97.8801 282.34 99.3272Z" fill="#4371B7"/>
<path d="M280.584 105.76L279.815 105.237C281.726 102.431 285.5 99.9878 288.995 99.2949L289.176 100.206C285.9 100.857 282.367 103.14 280.584 105.76Z" fill="#4371B7"/>
<path d="M396.018 215.436L381.422 213.466L391.075 141.105L362.914 137.305L294.603 200.197L291.014 227.101L349.875 235.045L346.94 257.051L375.101 260.851L378.037 238.845L392.633 240.815L396.018 215.436ZM322.159 205.468L358.204 172.613L353.261 209.665L322.159 205.468Z" fill="#4371B7"/>
<path d="M366.544 260.16C366.516 260.16 366.489 260.157 366.461 260.153C366.209 260.106 366.04 259.864 366.087 259.611L387.78 140.637C387.826 140.385 388.07 140.227 388.32 140.263C388.573 140.309 388.741 140.552 388.694 140.804L367.001 259.779C366.96 260.003 366.765 260.16 366.544 260.16Z" fill="#525252"/>
<path d="M385.793 142.636C385.778 143.056 385.425 143.385 385.005 143.371C384.585 143.357 384.256 143.004 384.269 142.584C384.283 142.163 384.637 141.834 385.057 141.848C385.478 141.862 385.808 142.215 385.793 142.636Z" fill="#525252"/>
<path d="M382.694 158.726C382.679 159.146 382.326 159.475 381.906 159.461C381.486 159.447 381.156 159.094 381.17 158.674C381.184 158.253 381.538 157.924 381.958 157.938C382.378 157.952 382.708 158.304 382.694 158.726Z" fill="#525252"/>
<path d="M379.594 174.815C379.579 175.236 379.227 175.565 378.806 175.551C378.386 175.537 378.057 175.184 378.071 174.763C378.085 174.343 378.438 174.014 378.858 174.028C379.28 174.043 379.609 174.395 379.594 174.815Z" fill="#525252"/>
<path d="M373.5 191.565C373.485 191.986 373.132 192.315 372.712 192.301C372.292 192.286 371.963 191.934 371.977 191.513C371.99 191.093 372.344 190.764 372.764 190.778C373.185 190.792 373.515 191.144 373.5 191.565Z" fill="#525252"/>
<path d="M373.396 206.995C373.381 207.416 373.028 207.745 372.608 207.731C372.188 207.716 371.859 207.363 371.872 206.943C371.886 206.523 372.24 206.194 372.66 206.207C373.081 206.221 373.411 206.575 373.396 206.995Z" fill="#525252"/>
<path d="M370.297 223.085C370.282 223.505 369.929 223.835 369.509 223.821C369.089 223.807 368.759 223.453 368.773 223.033C368.787 222.613 369.141 222.283 369.561 222.297C369.981 222.311 370.311 222.664 370.297 223.085Z" fill="#525252"/>
<path d="M367.197 239.175C367.182 239.595 366.83 239.924 366.409 239.91C365.989 239.896 365.66 239.543 365.674 239.123C365.689 238.702 366.041 238.373 366.461 238.387C366.883 238.401 367.212 238.754 367.197 239.175Z" fill="#525252"/>
<path d="M364.098 255.263C364.084 255.683 363.731 256.012 363.311 255.998C362.89 255.984 362.561 255.631 362.575 255.211C362.589 254.79 362.942 254.461 363.363 254.475C363.783 254.489 364.112 254.842 364.098 255.263Z" fill="#525252"/>
<path d="M372.738 192.004C372.524 192.004 372.331 191.855 372.284 191.636C372.23 191.385 372.39 191.138 372.642 191.083L374.952 190.588C375.206 190.537 375.45 190.693 375.504 190.946C375.558 191.197 375.398 191.443 375.147 191.498L372.837 191.994C372.803 192 372.771 192.004 372.738 192.004Z" fill="#525252"/>
<path d="M380.449 183.436C380.449 183.436 378.368 188.857 377.667 192.141C376.967 195.426 376.924 202.766 376.924 202.766" fill="#525252"/>
<path d="M376.924 203.231H376.922C376.665 203.229 376.458 203.02 376.459 202.763C376.461 202.462 376.51 195.338 377.213 192.044C377.913 188.762 379.929 183.492 380.015 183.268C380.107 183.029 380.375 182.91 380.616 183.001C380.856 183.093 380.976 183.363 380.883 183.602C380.863 183.657 378.808 189.028 378.122 192.238C377.44 195.439 377.39 202.696 377.389 202.768C377.388 203.025 377.18 203.231 376.924 203.231Z" fill="#525252"/>
<path d="M206.88 283.502C208.172 262.668 205.796 224.794 244.958 229.808C286.934 235.181 274.925 284.265 274.925 284.265L206.88 283.502Z" fill="#525252"/>
<path d="M233.909 270.978C243.346 270.978 250.997 263.327 250.997 253.89C250.997 244.452 243.346 236.801 233.909 236.801C224.471 236.801 216.82 244.452 216.82 253.89C216.82 263.327 224.471 270.978 233.909 270.978Z" fill="white"/>
<path d="M236.152 236.828C228.058 235.446 219.403 241.413 218.55 247.458L250.642 250.409C249.511 243.518 242.575 237.925 236.152 236.828Z" fill="#525252"/>
<path d="M246.986 253.465C246.756 257.933 244.322 261.439 241.547 261.297C238.773 261.154 236.71 257.417 236.939 252.949C237.169 248.481 239.604 244.975 242.378 245.117C245.152 245.26 247.216 248.997 246.986 253.465Z" fill="#525252"/>
<path d="M233.908 271.909C223.972 271.909 215.889 263.826 215.889 253.89C215.889 243.954 223.972 235.871 233.908 235.871C243.844 235.871 251.927 243.954 251.927 253.89C251.927 263.826 243.844 271.909 233.908 271.909ZM233.908 237.731C224.998 237.731 217.749 244.98 217.749 253.89C217.749 262.8 224.997 270.049 233.908 270.049C242.819 270.049 250.067 262.8 250.067 253.89C250.067 244.98 242.818 237.731 233.908 237.731Z" fill="#4371B7"/>
<path opacity="0.3" d="M270.151 282.979C270.115 282.979 270.079 282.974 270.042 282.966C269.792 282.905 269.638 282.654 269.698 282.404C269.729 282.278 272.692 269.668 269.615 256.919C269.554 256.67 269.708 256.419 269.958 256.357C270.204 256.302 270.458 256.45 270.519 256.701C273.651 269.674 270.634 282.493 270.602 282.622C270.551 282.836 270.362 282.979 270.151 282.979Z" fill="white"/>
<path opacity="0.3" d="M267.559 249.945C267.383 249.945 267.214 249.845 267.136 249.674C265.94 247.064 264.457 244.669 262.726 242.553C262.563 242.354 262.593 242.062 262.792 241.899C262.99 241.735 263.283 241.764 263.447 241.964C265.227 244.141 266.753 246.605 267.982 249.287C268.089 249.52 267.986 249.797 267.753 249.903C267.69 249.931 267.624 249.945 267.559 249.945Z" fill="white"/>
<path d="M119.724 381.223C119.609 381.223 119.493 381.222 119.378 381.219C116.811 381.148 114.787 379.01 114.857 376.442C114.927 373.875 117.042 371.89 119.633 371.922C119.662 371.923 119.691 371.923 119.722 371.923C122.409 371.923 128.872 368.659 142.394 347.343C143.12 346.199 144.31 345.428 145.651 345.232C146.995 345.042 148.353 345.44 149.376 346.33C166.061 360.878 183.743 369.933 183.92 370.023C186.209 371.186 187.123 373.985 185.96 376.274C184.798 378.563 182 379.48 179.712 378.316C179.01 377.96 163.554 370.058 147.35 356.79C136.017 373.827 127.607 381.223 119.724 381.223Z" fill="#525252"/>
<path d="M148.493 345.495C148.361 345.495 148.229 345.486 148.095 345.467C146.57 345.25 145.51 343.836 145.728 342.31C146.39 337.681 145.57 320.338 139.707 306.853C139.172 305.624 139.587 304.189 140.694 303.434C153.433 294.752 180.569 293.715 181.718 293.675C183.25 293.641 184.549 294.826 184.603 296.366C184.657 297.905 183.452 299.198 181.913 299.251C181.662 299.26 157.937 300.17 145.747 306.879C150.94 320.306 152.117 337.045 151.252 343.099C151.053 344.492 149.859 345.495 148.493 345.495Z" fill="#525252"/>
<path d="M153.181 341.883C151.325 337.506 142.962 338.004 138.051 341.755C135.427 343.759 131.875 349.791 131.501 351.976C131.128 354.163 132.642 356.143 135.243 355.918C138.449 355.64 142.851 350.98 142.851 350.98C139.923 353.852 143.701 355.879 149.34 351.725C152.468 349.422 155.258 346.784 153.181 341.883Z" fill="#4371B7"/>
<path d="M313.137 284.73C313.095 284.73 313.051 284.724 313.008 284.711C312.762 284.641 312.619 284.382 312.69 284.137C313.929 279.821 315.282 277.185 317.061 275.719C316.789 274.793 316.82 273.729 317.204 272.688C317.577 271.675 318.3 270.669 319.4 269.894C318.862 269.311 318.661 268.55 318.852 267.678C319.063 266.71 319.767 265.66 320.838 264.743C320.417 264.259 320.314 263.731 320.311 263.341C320.288 260.568 325.432 256.343 331.249 255.548C331.504 255.501 331.739 255.691 331.773 255.946C331.807 256.2 331.63 256.435 331.375 256.47C325.853 257.224 321.222 261.221 321.241 263.333C321.244 263.676 321.37 263.951 321.577 264.173C323.671 262.716 326.761 261.778 330.21 262.441C333.064 262.986 334.224 263.589 334.091 264.456C333.838 266.086 327.758 266.423 323.684 265.938C322.76 265.829 322.084 265.61 321.591 265.337C320.579 266.166 319.929 267.096 319.76 267.876C319.609 268.573 319.834 269.058 320.221 269.398C321.947 268.508 324.377 268.136 327.582 268.845C331.802 269.775 331.959 270.29 332.054 270.596C332.121 270.814 332.067 271.039 331.904 271.211C331.015 272.153 324.552 271.706 321.304 270.911C320.881 270.808 320.508 270.666 320.185 270.492C319.109 271.17 318.417 272.085 318.076 273.01C317.803 273.752 317.74 274.491 317.866 275.152C318.033 275.052 318.204 274.961 318.379 274.877C320.303 273.964 322.63 274.118 325.497 275.343C327.399 276.158 328.316 276.878 328.383 277.612C328.404 277.828 328.361 278.244 327.853 278.581C326.435 279.523 321.464 279.38 318.88 278.004C318.271 277.679 317.789 277.2 317.45 276.622C315.93 278.011 314.704 280.497 313.585 284.392C313.525 284.598 313.339 284.73 313.137 284.73ZM318.182 276.052C318.439 276.528 318.821 276.921 319.316 277.184C321.415 278.301 325.543 278.557 327.092 277.932C327.409 277.803 327.456 277.696 327.456 277.696C327.456 277.693 327.405 277.173 325.13 276.2C322.523 275.085 320.445 274.929 318.777 275.718C318.574 275.815 318.375 275.926 318.182 276.052ZM321.283 269.944C321.363 269.967 321.443 269.989 321.523 270.009C324.806 270.812 329.24 270.95 330.76 270.7C330.29 270.501 329.328 270.183 327.38 269.753C324.801 269.185 322.785 269.363 321.283 269.944ZM322.456 264.715C322.876 264.872 323.35 264.964 323.793 265.016C328.427 265.564 332.518 264.916 333.13 264.339C332.972 264.195 332.348 263.797 330.034 263.355C326.981 262.773 324.313 263.539 322.456 264.715Z" fill="#525252"/>
<path d="M192.07 379.67C192.683 379.474 192.478 378.883 191.794 378.883H179.203C155.227 376.344 138.474 379.747 149.031 380.549C159.586 381.352 148.288 381.183 140.579 384.099C132.87 387.016 197.917 387.75 203.833 384.099C209.288 380.732 183.575 382.393 192.07 379.67Z" fill="#525252"/>
<path d="M282.226 383.382L172.67 379.75L168.124 273.523L297.497 276.417L282.226 383.382Z" fill="#4371B7"/>
<path d="M206.881 381.35C206.641 381.35 206.437 381.167 206.417 380.923L197.635 274.233C197.614 273.977 197.805 273.752 198.061 273.731C198.325 273.716 198.542 273.901 198.563 274.156L207.345 380.847C207.365 381.103 207.175 381.328 206.919 381.348C206.906 381.349 206.893 381.35 206.881 381.35Z" fill="#525252"/>
<path d="M282.227 383.381L311.672 378.898L320.947 280.123L297.497 276.416L282.227 383.381Z" fill="#4371B7"/>
<path opacity="0.2" d="M282.227 383.381L311.672 378.898L320.947 280.123L297.497 276.416L282.227 383.381Z" fill="#161616"/>
<path d="M182.033 359.274L179.332 296.163C179.05 289.575 184.395 284.121 190.987 284.269L272.882 286.1C279.721 286.252 284.889 292.347 283.922 299.12L274.842 362.723C274.019 368.487 268.988 372.708 263.169 372.514L193.055 370.19C187.092 369.992 182.288 365.234 182.033 359.274Z" fill="#525252"/>
<path d="M190.88 303.635L203.55 304.038L203.446 307.305L195.514 307.053L195.437 309.485L202.795 309.72L202.696 312.84L195.337 312.606L195.242 315.622L203.403 315.881L203.294 319.346L190.394 318.936L190.88 303.635Z" fill="white"/>
<path d="M205.902 319.429L206.389 304.129L214.269 304.38C215.73 304.426 216.843 304.587 217.606 304.863C218.371 305.138 218.978 305.622 219.43 306.315C219.882 307.009 220.092 307.842 220.061 308.817C220.034 309.666 219.829 310.392 219.448 310.997C219.066 311.601 218.552 312.085 217.907 312.447C217.496 312.677 216.936 312.862 216.227 312.999C216.784 313.206 217.189 313.407 217.44 313.602C217.609 313.733 217.853 314.009 218.17 314.431C218.487 314.852 218.698 315.175 218.802 315.402L220.951 319.909L215.609 319.739L213.231 314.983C212.929 314.368 212.657 313.966 212.412 313.777C212.078 313.529 211.696 313.398 211.265 313.384L210.847 313.371L210.65 319.582L205.902 319.429ZM210.941 310.48L212.934 310.543C213.15 310.55 213.569 310.494 214.193 310.375C214.509 310.322 214.769 310.17 214.975 309.919C215.182 309.668 215.291 309.375 215.301 309.041C215.317 308.547 215.173 308.163 214.868 307.889C214.563 307.615 213.979 307.464 213.116 307.436L211.04 307.37L210.941 310.48Z" fill="white"/>
<path d="M222.528 319.959L223.014 304.658L230.894 304.909C232.355 304.956 233.468 305.117 234.232 305.392C234.996 305.667 235.604 306.151 236.056 306.845C236.508 307.538 236.718 308.373 236.686 309.346C236.659 310.195 236.455 310.922 236.073 311.526C235.691 312.131 235.178 312.614 234.532 312.976C234.121 313.207 233.561 313.391 232.853 313.529C233.41 313.735 233.814 313.936 234.065 314.131C234.236 314.262 234.478 314.539 234.796 314.96C235.114 315.381 235.325 315.705 235.429 315.932L237.577 320.438L232.234 320.268L229.856 315.512C229.556 314.897 229.282 314.495 229.038 314.306C228.704 314.059 228.322 313.928 227.89 313.914L227.473 313.901L227.275 320.11L222.528 319.959ZM227.567 311.009L229.56 311.072C229.775 311.079 230.195 311.023 230.819 310.903C231.134 310.85 231.394 310.699 231.601 310.447C231.807 310.196 231.916 309.903 231.926 309.57C231.942 309.076 231.798 308.692 231.493 308.417C231.188 308.143 230.604 307.992 229.742 307.964L227.665 307.898L227.567 311.009Z" fill="white"/>
<path d="M238.374 312.815C238.454 310.317 239.211 308.395 240.647 307.047C242.083 305.7 244.042 305.066 246.526 305.145C249.073 305.226 251.014 305.972 252.347 307.383C253.682 308.794 254.309 310.731 254.231 313.194C254.175 314.983 253.827 316.44 253.189 317.565C252.55 318.691 251.652 319.554 250.495 320.155C249.337 320.755 247.909 321.028 246.211 320.974C244.486 320.919 243.067 320.599 241.953 320.013C240.84 319.427 239.951 318.529 239.286 317.316C238.621 316.103 238.317 314.603 238.374 312.815ZM243.101 312.986C243.052 314.531 243.304 315.65 243.856 316.342C244.409 317.035 245.179 317.398 246.167 317.43C247.183 317.462 247.98 317.156 248.557 316.514C249.135 315.87 249.451 314.693 249.506 312.98C249.552 311.541 249.295 310.479 248.735 309.796C248.175 309.113 247.398 308.755 246.403 308.724C245.449 308.693 244.673 309.007 244.074 309.663C243.475 310.32 243.15 311.427 243.101 312.986Z" fill="white"/>
<path d="M256.594 321.041L257.08 305.74L264.96 305.991C266.421 306.038 267.534 306.199 268.298 306.474C269.062 306.749 269.67 307.233 270.122 307.927C270.573 308.62 270.784 309.455 270.752 310.428C270.725 311.277 270.52 312.004 270.139 312.608C269.758 313.213 269.244 313.696 268.598 314.058C268.186 314.289 267.626 314.473 266.919 314.611C267.476 314.817 267.88 315.018 268.131 315.213C268.301 315.344 268.544 315.621 268.861 316.042C269.178 316.463 269.39 316.787 269.494 317.014L271.642 321.52L266.3 321.35L263.922 316.594C263.621 315.98 263.348 315.577 263.104 315.388C262.77 315.141 262.388 315.01 261.956 314.996L261.539 314.983L261.341 321.192L256.594 321.041ZM261.632 312.091L263.625 312.154C263.841 312.161 264.261 312.105 264.885 311.985C265.2 311.932 265.46 311.781 265.667 311.529C265.873 311.278 265.982 310.985 265.992 310.652C266.008 310.158 265.864 309.774 265.559 309.499C265.254 309.225 264.671 309.074 263.808 309.046L261.731 308.98L261.632 312.091Z" fill="white"/>
<path d="M264.119 347.037C263.788 347.037 263.459 346.903 263.217 346.64L255.255 337.926L246.665 345.775C246.168 346.23 245.396 346.194 244.941 345.698L236.979 336.984L228.389 344.833C227.891 345.287 227.118 345.252 226.665 344.755L218.703 336.042L210.112 343.891C209.874 344.11 209.553 344.224 209.234 344.21C208.911 344.196 208.607 344.053 208.388 343.814L200.426 335.101L191.836 342.949C191.338 343.404 190.567 343.368 190.112 342.872C189.657 342.375 189.692 341.602 190.19 341.147L199.681 332.475C200.178 332.018 200.95 332.054 201.406 332.552L209.367 341.265L217.958 333.416C218.196 333.197 218.517 333.084 218.836 333.097C219.159 333.112 219.464 333.254 219.682 333.493L227.644 342.206L236.234 334.358C236.731 333.902 237.504 333.938 237.958 334.435L245.92 343.148L254.511 335.3C255.008 334.843 255.78 334.879 256.236 335.377L265.02 344.992C265.475 345.489 265.44 346.262 264.942 346.717C264.708 346.932 264.413 347.037 264.119 347.037Z" fill="white"/>
<path d="M116.948 385.641L111.128 382.865L105.936 357.6L108.753 354.496L116.948 385.641Z" fill="#4371B7"/>
<path d="M116.948 385.641L124.671 381.128L118.05 360.312L108.753 354.496L116.948 385.641Z" fill="#4371B7"/>
<path opacity="0.2" d="M116.948 385.641L124.671 381.128L118.05 360.312L108.753 354.496L116.948 385.641Z" fill="#161616"/>
<path d="M243.613 390.232C243.393 390.232 243.179 390.229 242.97 390.223C240.403 390.152 238.379 388.014 238.45 385.447C238.52 382.881 240.641 380.863 243.225 380.927C250.389 381.161 265.551 376.76 274.212 368.352C274.747 367.832 275.399 367.449 276.115 367.235C290.797 362.829 296.262 371.731 296.488 372.112L288.484 376.846C288.484 376.846 288.514 376.91 288.591 377.016C288.501 376.893 286.423 374.19 279.8 375.863C268.931 385.784 252.247 390.232 243.613 390.232Z" fill="#525252"/>
<path d="M243.098 396.414L226.16 395.347L224.823 364.121L247.587 364.972L243.098 396.414Z" fill="#4371B7"/>
<path d="M243.098 396.415L247.057 392.475L249.511 373.004L247.587 364.973L243.098 396.415Z" fill="#4371B7"/>
<path opacity="0.2" d="M243.098 396.415L247.057 392.475L249.511 373.004L247.587 364.973L243.098 396.415Z" fill="#161616"/>
<path d="M341.226 384.59C340.639 384.59 340.045 384.405 339.54 384.022C329.873 376.675 316.807 363.631 311.792 351.047C311.718 350.864 311.665 350.672 311.633 350.477C309.188 335.938 306.852 305.334 306.753 304.037C306.637 302.502 307.787 301.161 309.324 301.045C310.855 300.932 312.2 302.079 312.316 303.616C312.341 303.929 314.7 334.833 317.085 349.254C322.087 361.489 335.645 374.053 342.916 379.579C344.143 380.511 344.382 382.262 343.449 383.488C342.901 384.211 342.069 384.59 341.226 384.59Z" fill="#525252"/>
<path d="M354.124 386C351.967 386 349.521 385.021 346.857 383.093C345.608 382.189 345.329 380.446 346.232 379.198C347.136 377.95 348.88 377.67 350.128 378.573C352.432 380.24 353.69 380.42 354.124 380.42C355.665 380.42 356.914 381.669 356.914 383.21C356.914 384.751 355.665 386 354.124 386Z" fill="#525252"/>
<path d="M347.638 383.013C350.623 374.146 362.862 375.898 367.077 377.215C371.291 378.531 375.089 380.189 377.372 381.681C379.655 383.174 379.691 385.666 376.647 387.09C372.894 388.846 363.477 387.288 363.477 387.288C368.352 389.423 363.468 392.842 354.917 389.483C352.132 388.389 346.584 386.263 347.638 383.013Z" fill="#4371B7"/>
<path d="M317.932 307.864C316.824 315.399 310.585 320.954 305.509 320.209C300.433 319.463 300.222 312.733 301.329 305.198C302.437 297.664 304.444 292.177 309.52 292.923C314.596 293.67 319.039 300.33 317.932 307.864Z" fill="#525252"/>
<path d="M195.184 277.785C195.605 277.785 195.946 277.444 195.946 277.023C195.946 276.603 195.605 276.262 195.184 276.262C194.763 276.262 194.422 276.603 194.422 277.023C194.422 277.444 194.763 277.785 195.184 277.785Z" fill="#525252"/>
<path d="M202.933 282.514C202.933 282.934 202.592 283.275 202.172 283.275C201.751 283.275 201.409 282.934 201.409 282.514C201.409 282.092 201.75 281.752 202.172 281.752C202.593 281.752 202.933 282.092 202.933 282.514Z" fill="#525252"/>
<path d="M203.786 372.635C203.786 373.056 203.445 373.396 203.025 373.396C202.604 373.396 202.262 373.055 202.262 372.635C202.262 372.213 202.604 371.873 203.025 371.873C203.445 371.872 203.786 372.213 203.786 372.635Z" fill="#525252"/>
<path d="M210.774 378.125C210.774 378.546 210.433 378.887 210.012 378.887C209.591 378.887 209.25 378.545 209.25 378.125C209.25 377.704 209.591 377.363 210.012 377.363C210.433 377.362 210.774 377.704 210.774 378.125Z" fill="#525252"/>
<path d="M76.7345 387.27C74.5211 387.27 71.5284 385.929 69.9148 383.597C69.7688 383.386 69.8209 383.097 70.032 382.951C70.2431 382.804 70.5323 382.857 70.6793 383.069C72.4147 385.575 76.2397 386.911 77.9379 386.12C78.1165 386.036 78.2616 385.931 78.3722 385.804C76.8545 385.103 75.4669 383.73 75.0931 381.636C74.8819 380.458 74.7145 378.865 75.6873 378.644C77.0209 378.345 78.7656 381.57 79.4371 384.015C79.5617 384.467 79.6008 384.886 79.558 385.264C80.1457 385.425 80.7242 385.467 81.2199 385.395C81.6226 385.337 82.1945 385.171 82.4986 384.702C81.3687 383.939 80.6089 382.592 80.355 380.807C79.9942 378.264 80.2648 377.82 80.5466 377.604C80.7298 377.463 80.9623 377.436 81.1864 377.531C82.1806 377.954 83.3859 381.562 83.6165 383.603C83.6416 383.828 83.6416 384.044 83.6193 384.248C83.9997 384.399 84.4191 384.482 84.8739 384.491C85.6802 384.538 86.4772 384.281 87.1152 383.906C86.9831 383.823 86.8585 383.731 86.7413 383.632C85.776 382.807 85.3872 381.489 85.5509 379.604C85.6774 378.147 86.0094 377.35 86.5953 377.1C86.8008 377.008 87.2193 376.924 87.7187 377.322C88.7231 378.124 89.6606 380.668 89.3239 382.49C89.2542 382.866 89.0914 383.228 88.8571 383.56C90.5636 383.854 92.9649 383.375 95.036 382.864C95.2843 382.803 95.5372 382.954 95.5986 383.203C95.66 383.453 95.5084 383.704 95.2592 383.766C92.7389 384.389 90.0261 384.896 88.1093 384.34C87.2575 385.018 86.0578 385.429 84.8562 385.42C84.3084 385.409 83.7979 385.311 83.3319 385.134C82.9655 385.758 82.2838 386.18 81.3566 386.316C80.7391 386.408 80.0118 386.348 79.2753 386.138C79.066 386.487 78.7498 386.767 78.3332 386.962C77.8868 387.169 77.3399 387.269 76.7345 387.27ZM75.931 379.572C75.877 379.715 75.7794 380.185 76.01 381.473C76.316 383.185 77.4236 384.322 78.6503 384.922C78.6447 384.724 78.6085 384.504 78.5424 384.263C77.8114 381.604 76.423 379.772 75.931 379.572ZM81.112 378.761C81.1064 379.111 81.1381 379.699 81.2766 380.676C81.4654 382.004 81.9546 383.024 82.6893 383.674C82.4717 381.805 81.643 379.643 81.112 378.761ZM86.9626 377.953H86.9608C86.9589 377.954 86.612 378.13 86.4763 379.683C86.3405 381.248 86.6251 382.308 87.3449 382.923C87.5086 383.063 87.6946 383.18 87.9019 383.276C88.1651 382.985 88.3446 382.659 88.4069 382.32C88.6562 380.972 88.0145 378.999 87.2947 378.2C87.1087 377.992 86.9887 377.953 86.9626 377.953Z" fill="#525252"/>
<path d="M212.852 394.301L215.373 389.93L212.852 385.559H210.154L211.679 389.93L210.154 394.301H212.852Z" fill="#525252"/>
<path d="M210.332 392.208C209.076 392.208 208.053 391.185 208.053 389.929C208.053 388.674 209.076 387.66 210.332 387.66L206.046 386.803L204.91 390.263L206.822 393.183L210.332 392.208Z" fill="#525252"/>
<path d="M210.698 385.559H205.648L203.128 389.93L205.648 394.301H210.698L213.218 389.93L210.698 385.559ZM208.178 392.208C206.922 392.208 205.899 391.185 205.899 389.93C205.899 388.674 206.922 387.66 208.178 387.66C209.433 387.66 210.447 388.674 210.447 389.93C210.447 391.185 209.433 392.208 208.178 392.208Z" fill="#4371B7"/>
<path d="M388.637 385.268L386.766 382.021L388.637 378.775H390.641L389.509 382.022L390.641 385.268H388.637Z" fill="#4371B7"/>
<path d="M390.509 383.714C391.442 383.714 392.201 382.954 392.201 382.021C392.201 381.09 391.442 380.336 390.509 380.336L393.691 379.699L394.536 382.27L393.116 384.438L390.509 383.714Z" fill="#4371B7"/>
<path d="M390.237 378.775H393.988L395.86 382.021L393.988 385.268H390.237L388.365 382.021L390.237 378.775ZM392.109 383.714C393.042 383.714 393.802 382.954 393.802 382.021C393.802 381.089 393.042 380.336 392.109 380.336C391.177 380.336 390.424 381.089 390.424 382.021C390.423 382.954 391.177 383.714 392.109 383.714Z" fill="#525252"/>
<path d="M318.942 389.576H323.144C324.237 389.576 325.133 388.682 325.133 387.587C325.133 386.493 324.237 385.598 323.144 385.598H318.942C317.847 385.598 316.953 386.493 316.953 387.587C316.953 388.682 317.847 389.576 318.942 389.576Z" fill="#525252"/>
<path d="M312.229 385.823C313.267 383.623 315.782 382.629 317.848 383.602C319.914 384.576 320.747 387.149 319.71 389.35C318.673 391.55 316.157 392.544 314.092 391.571C312.025 390.597 311.191 388.024 312.229 385.823Z" fill="#4371B7"/>
<path d="M313.412 391.552L314.564 392.096L318.571 383.598L317.419 383.055L313.412 391.552Z" fill="#525252"/>
</svg>
