<svg version="1.1" id="Capa_1" xmlns="http://www.w3.org/2000/svg" xmlns:xlink="http://www.w3.org/1999/xlink" x="0px" y="0px" viewBox="0 0 200 200" style="enable-background:new 0 0 465 465;" xml:space="preserve" width="200" height="200"><g><path d="M134.785 131.445a3.226 3.226 0 0 0 -3.226 3.226V193.548H36.56v-26.882a3.226 3.226 0 0 0 -3.226 -3.226h-26.882V6.452h125.107v58.877a3.226 3.226 0 0 0 6.452 0V3.226a3.226 3.226 0 0 0 -3.226 -3.226H3.227a3.226 3.226 0 0 0 -3.226 3.226v163.441c0 0.108 0.006 0.215 0.016 0.322 0.008 0.078 0.021 0.154 0.034 0.231 0.005 0.027 0.007 0.055 0.012 0.082 0.018 0.09 0.041 0.179 0.067 0.266 0.004 0.013 0.006 0.026 0.01 0.039 0.027 0.089 0.059 0.176 0.094 0.262 0.005 0.012 0.008 0.024 0.013 0.035 0.034 0.081 0.072 0.16 0.112 0.237 0.008 0.016 0.015 0.032 0.023 0.048 0.038 0.072 0.081 0.141 0.125 0.209 0.013 0.021 0.025 0.042 0.038 0.062 0.043 0.065 0.092 0.127 0.139 0.188 0.017 0.022 0.031 0.044 0.049 0.065 0.067 0.081 0.138 0.16 0.212 0.234l30.106 30.106c0.074 0.074 0.153 0.145 0.234 0.212 0.021 0.017 0.044 0.032 0.065 0.049 0.062 0.048 0.123 0.096 0.188 0.139 0.02 0.014 0.042 0.025 0.062 0.038 0.068 0.043 0.137 0.086 0.209 0.125 0.015 0.009 0.032 0.015 0.048 0.023 0.078 0.04 0.157 0.079 0.237 0.112 0.012 0.005 0.024 0.008 0.035 0.012 0.086 0.034 0.172 0.067 0.262 0.094 0.013 0.004 0.026 0.006 0.039 0.01 0.087 0.026 0.176 0.049 0.266 0.067 0.027 0.006 0.055 0.008 0.082 0.012 0.077 0.013 0.153 0.027 0.231 0.034 0.107 0.011 0.214 0.016 0.322 0.016h101.451a3.226 3.226 0 0 0 3.226 -3.226V134.671a3.225 3.225 0 0 0 -3.225 -3.226zM30.108 188.987 11.014 169.892h19.094v19.094z"/><path d="M113.28 174.194a3.226 3.226 0 0 0 0 -6.452h-27.699a3.226 3.226 0 0 0 0 6.452h27.699z"/><path d="M113.28 30.108H24.732a3.226 3.226 0 0 0 0 6.452h88.548a3.226 3.226 0 0 0 0 -6.452z"/><path d="M113.28 47.312H24.732a3.226 3.226 0 0 0 0 6.452h88.548a3.226 3.226 0 0 0 0 -6.452z"/><path d="M113.28 64.516H24.732a3.226 3.226 0 0 0 0 6.452h88.548a3.226 3.226 0 0 0 0 -6.452z"/><path d="M116.505 84.946a3.226 3.226 0 0 0 -3.226 -3.226H24.732a3.226 3.226 0 0 0 0 6.452h88.548a3.226 3.226 0 0 0 3.226 -3.226z"/><path d="M101.189 102.151a3.226 3.226 0 0 0 -3.226 -3.226H24.732a3.226 3.226 0 0 0 0 6.452h73.231a3.226 3.226 0 0 0 3.225 -3.226z"/><path d="M24.732 116.129a3.226 3.226 0 0 0 0 6.452h44.274a3.226 3.226 0 0 0 0 -6.452H24.732z"/><path d="M195.66 39.125c-2.799 -2.799 -6.525 -4.341 -10.492 -4.341s-7.693 1.542 -10.492 4.341L164.639 49.161h-0.001l-9.123 9.123h0l0 0 -65.21 65.211a3.166 3.166 0 0 0 -0.25 0.284c-0.02 0.025 -0.038 0.052 -0.057 0.078a3.223 3.223 0 0 0 -0.163 0.24c-0.009 0.015 -0.02 0.028 -0.028 0.042l-18.998 32.266a5.335 5.335 0 0 0 -1.238 3.434c0 1.436 0.559 2.786 1.575 3.802s2.366 1.575 3.802 1.575c1.269 0 2.471 -0.437 3.434 -1.238l32.266 -18.998c0.015 -0.009 0.028 -0.02 0.043 -0.029 0.082 -0.05 0.161 -0.104 0.239 -0.162 0.026 -0.019 0.053 -0.038 0.079 -0.058 0.098 -0.077 0.194 -0.16 0.284 -0.25L176.499 79.271l0 0 0 0 9.123 -9.123h0.001l10.036 -10.036c5.785 -5.786 5.785 -15.2 0 -20.985zm-21.441 33.302 -11.861 -11.862 4.562 -4.562 11.862 11.861 -4.563 4.562zM109.008 137.638l-11.861 -11.861 60.649 -60.649L169.657 76.989 109.008 137.638zm-18.627 11.786 -5.02 -5.02 7.889 -13.4 10.53 10.53 -13.4 7.889zm-12.207 7.188 3.806 -6.465 2.658 2.658 -6.465 3.806zm112.924 -101.064 -7.755 7.755 -11.862 -11.861 7.756 -7.756c1.581 -1.581 3.687 -2.451 5.931 -2.451s4.35 0.871 5.931 2.451c1.581 1.581 2.451 3.687 2.451 5.931s-0.871 4.351 -2.452 5.931z"/></g></svg>