<svg width="309" height="212" viewBox="0 0 309 212" fill="none" xmlns="http://www.w3.org/2000/svg">
<path d="M203.91 68.8054C203.162 68.8335 202.412 68.7698 201.678 68.6157C201.497 68.5889 201.324 68.5214 201.171 68.4178C201.018 68.3143 200.888 68.1772 200.791 68.0161C200.639 67.6107 200.572 67.1758 200.594 66.741V43H196.777V65.8833C196.698 67.2892 196.906 68.6966 197.388 70.0122C197.584 70.4312 197.87 70.798 198.223 71.0847C198.576 71.3713 198.986 71.5704 199.424 71.6668C200.901 71.9713 202.406 72.0986 203.91 72.0463V68.8054ZM39.976 71.7655L34.1586 63.91H32.2171V71.7655H28.3994V43H32.2171V60.32H34.1586L40.0269 52.5784H44.2446L37.2419 61.8228L44.3755 71.7655H39.976ZM59.8934 69.2305H59.6389C59.2064 70.1614 58.4832 70.9109 57.5882 71.3556C56.3913 71.8714 55.1006 72.1071 53.8069 72.0463C52.482 72.128 51.1599 71.8426 49.9747 71.219C49.1082 70.684 48.4746 69.8186 48.2077 68.8054C47.8711 67.4221 47.717 65.9972 47.7495 64.5703V52.5784H51.5672V62.8778C51.522 64.1065 51.6123 65.3365 51.8363 66.5437C51.8864 66.8567 52.0113 67.1515 52.1994 67.4009C52.3875 67.6502 52.6327 67.8462 52.9125 67.9706C53.7663 68.2317 54.6564 68.3395 55.5449 68.2893C56.5037 68.3594 57.4624 68.1519 58.3154 67.6897C58.6143 67.483 58.8696 67.2148 59.0659 66.9016C59.2622 66.5884 59.3953 66.2368 59.4571 65.8682C59.6665 64.746 59.7568 63.6032 59.7261 62.4603V52.5935H63.5438V71.7655H60.0533L59.8934 69.2305ZM71.8263 71.8945C70.5319 71.7958 69.4121 71.6744 68.4813 71.5226V68.1375C70.5967 68.3816 72.7231 68.5083 74.8514 68.517C75.6851 68.5476 76.5195 68.4789 77.3383 68.3121C77.5463 68.2822 77.7457 68.2057 77.9227 68.0878C78.0997 67.9699 78.2501 67.8134 78.3636 67.629C78.5385 67.1976 78.618 66.7307 78.5963 66.2628C78.6236 65.811 78.5694 65.3579 78.4363 64.927C78.3879 64.8019 78.3151 64.6887 78.2224 64.5947C78.1298 64.5006 78.0194 64.4277 77.8982 64.3806C77.4452 64.2425 76.9798 64.1535 76.5093 64.1149L72.0445 63.5533C71.1064 63.4794 70.1988 63.1723 69.3975 62.6577C68.8135 62.226 68.3878 61.5996 68.1904 60.8816C67.9511 59.9387 67.8409 58.9651 67.8632 57.9899C67.7762 56.6977 68.0815 55.4097 68.7358 54.3089C69.3242 53.4793 70.1783 52.8975 71.1428 52.6694C72.4645 52.3789 73.8136 52.2465 75.164 52.2748C76.1457 52.2748 77.2074 52.3355 78.3491 52.4493C79.3067 52.5264 80.2587 52.6658 81.1996 52.8668V56.2063C79.3057 55.9344 77.3957 55.8025 75.484 55.8116C74.7016 55.7976 73.9192 55.8407 73.1425 55.9407C72.6937 55.9945 72.2758 56.2059 71.9572 56.5403C71.6609 56.9574 71.5189 57.4722 71.5573 57.9899C71.5401 58.4029 71.5892 58.8159 71.7027 59.2119C71.7449 59.3383 71.8139 59.4531 71.9045 59.5477C71.9952 59.6423 72.1052 59.7143 72.2263 59.7584C72.6421 59.8963 73.0713 59.9854 73.5061 60.024L78.3636 60.6615C79.1513 60.7247 79.9208 60.9409 80.6324 61.2991C81.2016 61.6553 81.6259 62.217 81.825 62.8778C82.1295 63.9507 82.2622 65.0688 82.2176 66.1869C82.2932 67.477 82.0265 68.7638 81.4468 69.906C80.9373 70.7503 80.1392 71.3608 79.2144 71.6137C77.947 71.9393 76.6433 72.0848 75.3386 72.0463C74.2478 72.0463 73.0698 72.0008 71.8263 71.8945ZM89.0458 71.7655V56.1152H85.4099V52.5784H89.0458V47.015H92.9144V52.5784H97.1975V56.1152H92.9144V71.7655H89.0458ZM116.017 63.5912H104.018C103.969 64.6842 104.075 65.7787 104.331 66.8397C104.447 67.1716 104.641 67.4679 104.895 67.7013C105.149 67.9346 105.455 68.0977 105.785 68.1755C107.04 68.4834 108.33 68.6111 109.618 68.555C111.518 68.5308 113.416 68.4042 115.304 68.1755V71.4846C114.305 71.6897 113.295 71.8267 112.279 71.8945C111.057 72.0008 109.872 72.0463 108.716 72.0463C106.151 72.0463 104.268 71.7402 103.066 71.1279C102.495 70.8504 101.99 70.4456 101.585 69.942C101.18 69.4385 100.887 68.8484 100.724 68.2134C100.302 66.2415 100.121 64.2217 100.186 62.2023C100.125 60.2307 100.305 58.2589 100.724 56.3353C100.886 55.6902 101.174 55.0872 101.571 54.5646C101.968 54.0419 102.465 53.6111 103.029 53.2994C104.207 52.6239 106.018 52.29 108.469 52.2824C110.919 52.2748 112.512 52.6239 113.559 53.2994C114.076 53.6152 114.523 54.0414 114.872 54.5502C115.22 55.059 115.462 55.6389 115.58 56.2518C115.907 58.2186 116.046 60.2144 115.995 62.2099L116.017 63.5912ZM105.516 56.1684C105.234 56.2889 104.981 56.4753 104.778 56.7134C104.575 56.9516 104.427 57.235 104.346 57.5421C104.113 58.5766 104.003 59.637 104.018 60.6995H112.374V60.6236C112.419 59.558 112.299 58.4917 112.017 57.4662C111.927 57.1662 111.776 56.8901 111.574 56.6569C111.372 56.4236 111.124 56.2389 110.847 56.1152C110.039 55.8469 109.192 55.7312 108.345 55.7737C107.387 55.718 106.427 55.8519 105.516 56.1684ZM120.656 52.5784H124.183L124.328 56.0014H124.612C124.762 55.3942 125.025 54.8241 125.387 54.3238C125.749 53.8236 126.202 53.4032 126.721 53.0869C127.948 52.4901 129.295 52.2115 130.648 52.2748V56.4112C129.354 56.3455 128.065 56.6059 126.888 57.1702C126.014 57.6505 125.354 58.4673 125.048 59.4472C124.65 60.8552 124.473 62.3214 124.525 63.7886V71.7655H120.685L120.656 52.5784ZM137.432 71.8945C136.138 71.7958 135.018 71.6744 134.087 71.5226V68.1375C136.202 68.3816 138.329 68.5083 140.457 68.517C141.291 68.5476 142.125 68.4789 142.944 68.3121C143.152 68.2822 143.351 68.2057 143.528 68.0878C143.705 67.9699 143.856 67.8134 143.969 67.629C144.144 67.1976 144.224 66.7307 144.202 66.2628C144.229 65.811 144.175 65.3579 144.042 64.927C143.994 64.8019 143.921 64.6887 143.828 64.5947C143.736 64.5006 143.625 64.4277 143.504 64.3806C143.051 64.2425 142.586 64.1535 142.115 64.1149L137.65 63.5533C136.743 63.4634 135.867 63.157 135.091 62.6577C134.498 62.2252 134.066 61.5925 133.869 60.8665C133.63 59.9235 133.519 58.9499 133.542 57.9747C133.437 56.6928 133.724 55.4091 134.363 54.3089C134.952 53.4793 135.806 52.8975 136.77 52.6694C138.092 52.3789 139.441 52.2465 140.792 52.2748C141.773 52.2748 142.835 52.3355 143.977 52.4493C144.927 52.5323 145.872 52.6768 146.805 52.882V56.2215C144.907 55.9496 142.992 55.8177 141.075 55.8268C140.293 55.8128 139.51 55.8559 138.734 55.9558C138.285 56.0097 137.867 56.2211 137.548 56.5554C137.252 56.9726 137.11 57.4874 137.148 58.0051C137.131 58.418 137.18 58.8311 137.294 59.2271C137.336 59.3534 137.405 59.4682 137.496 59.5629C137.586 59.6575 137.696 59.7295 137.817 59.7735C138.233 59.9115 138.663 60.0006 139.097 60.0392L143.955 60.6767C144.743 60.7399 145.512 60.9561 146.224 61.3143C146.803 61.6603 147.241 62.2168 147.453 62.8778C147.757 63.9507 147.89 65.0688 147.845 66.1869C147.921 67.477 147.654 68.7638 147.074 69.906C146.565 70.7503 145.767 71.3608 144.842 71.6137C143.575 71.9393 142.271 72.0848 140.966 72.0463C139.904 72.0463 138.726 72.0008 137.432 71.8945ZM170.133 71.8945C169.222 71.9945 168.307 72.0451 167.392 72.0463C165.087 72.0463 163.399 71.6972 162.301 70.9989C161.776 70.6647 161.321 70.2237 160.963 69.7021C160.604 69.1806 160.35 68.5892 160.214 67.963C159.87 66.0394 159.736 64.0814 159.815 62.1264C159.763 60.2249 159.946 58.3245 160.36 56.472C160.671 55.1756 161.453 54.0567 162.541 53.3525C163.618 52.629 165.225 52.2697 167.363 52.2748C168.228 52.2748 169.144 52.3279 170.104 52.4266C170.906 52.5009 171.701 52.6405 172.482 52.844V56.1835C171.115 55.9233 169.727 55.7987 168.337 55.8116C167.288 55.7436 166.238 55.9172 165.261 56.3202C164.92 56.4893 164.622 56.7383 164.388 57.0477C164.155 57.357 163.993 57.7185 163.916 58.1038C163.669 59.4411 163.566 60.8032 163.61 62.1643C163.566 63.5517 163.676 64.9398 163.938 66.3008C164.009 66.6746 164.161 67.0264 164.383 67.329C164.605 67.6317 164.89 67.8771 165.217 68.0465C166.215 68.4179 167.273 68.5779 168.33 68.517C169.739 68.502 171.146 68.3879 172.54 68.1755V71.5226C171.745 71.6958 170.942 71.82 170.133 71.8945ZM177.063 70.7712C176.14 69.9211 175.681 68.4942 175.674 66.407C175.624 65.2123 175.797 64.0188 176.183 62.893C176.342 62.4831 176.576 62.1099 176.873 61.7947C177.17 61.4795 177.524 61.2286 177.914 61.0562C179.017 60.6171 180.195 60.4182 181.375 60.4718C182.742 60.4718 184.817 60.5224 187.6 60.6236V59.7963C187.657 58.8705 187.528 57.9424 187.222 57.0716C187.089 56.7951 186.894 56.5565 186.654 56.3766C186.413 56.1967 186.134 56.0809 185.84 56.0393C184.69 55.8585 183.527 55.7874 182.364 55.8268C181.572 55.8268 180.604 55.8268 179.456 55.9407C178.307 56.0545 177.456 56.1001 176.903 56.1987V52.8668C179.151 52.4647 181.429 52.2742 183.709 52.2975C185.414 52.199 187.12 52.457 188.727 53.0565C189.227 53.2667 189.68 53.584 190.056 53.988C190.432 54.3919 190.722 54.8735 190.909 55.4018C191.323 56.8793 191.505 58.4173 191.447 59.9557V71.7655H187.956L187.811 69.3215H187.593C187.349 69.8407 187.006 70.3027 186.586 70.6798C186.166 71.0568 185.678 71.3409 185.149 71.515C183.948 71.8974 182.697 72.0818 181.441 72.0615C179.453 72.0564 177.994 71.6263 177.063 70.7712ZM185.542 68.3121C186.121 68.1324 186.619 67.7419 186.945 67.2116C187.437 66.1901 187.66 65.0509 187.593 63.91V63.3408H182.357C181.734 63.3207 181.11 63.3845 180.503 63.5305C180.319 63.5855 180.15 63.682 180.007 63.8132C179.864 63.9444 179.75 64.1071 179.674 64.2895C179.497 64.8391 179.421 65.4183 179.448 65.9972C179.416 66.5802 179.508 67.1633 179.717 67.7049C179.824 67.9043 179.972 68.0761 180.151 68.2075C180.329 68.3389 180.534 68.4265 180.75 68.4639C181.544 68.6141 182.35 68.6777 183.157 68.6536C183.964 68.6696 184.769 68.5544 185.542 68.3121ZM208.092 71.7655V52.5784H211.909V71.7655H208.092ZM226.926 71.8945C226.017 71.9945 225.105 72.0451 224.191 72.0463C221.886 72.0463 220.185 71.6972 219.101 70.9989C218.575 70.6647 218.119 70.2239 217.759 69.7024C217.399 69.181 217.144 68.5895 217.007 67.963C216.645 66.0466 216.489 64.094 216.541 62.1416C216.491 60.2406 216.672 58.3406 217.08 56.4871C217.393 55.1918 218.175 54.0737 219.261 53.3677C220.345 52.6087 221.959 52.29 224.09 52.29C224.955 52.29 225.864 52.3431 226.824 52.4418C227.626 52.5161 228.421 52.6556 229.202 52.8592V56.1987C227.837 55.9384 226.451 55.8139 225.064 55.8268C224.013 55.7594 222.961 55.933 221.981 56.3353C221.658 56.5141 221.377 56.7654 221.158 57.0712C220.939 57.377 220.788 57.7297 220.715 58.1038C220.468 59.4411 220.366 60.8032 220.41 62.1643C220.366 63.5517 220.476 64.9398 220.737 66.3008C220.807 66.6741 220.958 67.0256 221.179 67.3283C221.399 67.631 221.684 67.8767 222.01 68.0465C223.009 68.4177 224.07 68.5777 225.129 68.517C226.539 68.502 227.945 68.3879 229.34 68.1755V71.5226C228.543 71.6958 227.737 71.82 226.926 71.8945ZM235.441 71.2038C234.896 70.9471 234.415 70.562 234.036 70.0787C233.658 69.5954 233.392 69.0271 233.259 68.4184C232.88 66.3456 232.722 64.2355 232.787 62.1264C232.722 60.0274 232.88 57.9273 233.259 55.8648C233.391 55.2586 233.657 54.693 234.036 54.2133C234.415 53.7336 234.896 53.353 235.441 53.1021C236.582 52.5556 238.451 52.2748 241.047 52.2748C243.643 52.2748 245.505 52.5556 246.646 53.1021C247.191 53.353 247.672 53.7336 248.051 54.2133C248.43 54.693 248.696 55.2586 248.828 55.8648C249.192 57.929 249.336 60.029 249.257 62.1264C249.322 64.2355 249.163 66.3456 248.784 68.4184C248.652 69.0271 248.386 69.5954 248.007 70.0787C247.629 70.562 247.148 70.9471 246.603 71.2038C245.461 71.7655 243.6 72.0463 241.004 72.0463C238.408 72.0463 236.561 71.7655 235.441 71.2038ZM244.167 68.0844C244.468 67.9333 244.726 67.7037 244.917 67.4178C245.108 67.132 245.226 66.7995 245.258 66.4526C245.431 65.0079 245.499 63.5515 245.461 62.096C245.499 60.6456 245.431 59.1943 245.258 57.7546C245.215 57.4256 245.092 57.1135 244.901 56.8479C244.71 56.5823 244.457 56.3719 244.167 56.2367C242.113 55.6902 239.96 55.6902 237.906 56.2367C237.631 56.3838 237.395 56.5992 237.219 56.8639C237.043 57.1286 236.931 57.4345 236.895 57.7546C236.722 59.1943 236.654 60.6456 236.691 62.096C236.654 63.5414 236.722 64.9877 236.895 66.4222C236.924 66.7652 237.037 67.0946 237.223 67.379C237.409 67.6634 237.661 67.8932 237.957 68.0465C240.007 68.6234 242.167 68.6234 244.218 68.0465L244.167 68.0844ZM208.019 43H212.018V47.0606H208.019V43Z" fill="white"/>
<path d="M26.8105 88.838C28.5522 88.838 28.5667 88.7107 28.5667 86.9284V81.4767H30.3591V86.4342C30.3591 90.1111 30.2067 90.2234 26.8396 90.2384L26.8105 88.838ZM32.5361 88.4187C32.5361 86.921 32.9497 86.3967 34.5099 86.3967L36.433 86.4417V86.1871C36.433 85.0563 36.1935 85.0039 34.7639 85.0039C34.2197 85.0039 33.3126 85.0713 32.9135 85.1237V83.8356C33.7061 83.711 34.5064 83.6459 35.3082 83.6409C37.79 83.6409 38.073 84.4422 38.073 86.2769V90.2384H36.5128L36.4693 89.4296H36.3822C36.162 89.7522 35.8599 90.006 35.5092 90.1632C35.1585 90.3204 34.7726 90.3749 34.3938 90.3208C33.1602 90.3358 32.5361 89.8265 32.5361 88.4187ZM36.237 88.6059C36.3825 88.2964 36.4475 87.9532 36.4257 87.6099V87.4227H34.9744C34.2487 87.4227 34.1326 87.52 34.1326 88.239C34.1326 88.9579 34.285 88.9878 35.2066 88.9878C35.399 89.0341 35.6003 89.0228 35.7867 88.9552C35.9731 88.8875 36.1369 88.7663 36.2588 88.6059H36.237ZM40.787 92.7097V91.4591H42.5577C44.2485 91.4591 44.3573 91.2194 44.3573 89.7666V89.3548H44.2848C44.088 89.6541 43.8134 89.8902 43.4925 90.0359C43.1716 90.1816 42.8174 90.231 42.4706 90.1785C40.8959 90.1785 40.2936 89.4297 40.2936 86.906C40.2936 84.3823 40.8959 83.566 42.4706 83.566C42.8324 83.5177 43.2 83.579 43.5286 83.7426C43.8571 83.9061 44.1325 84.1649 44.321 84.4871H44.4226L44.4734 83.6709H46.0046V89.4296C46.0046 91.7811 45.7651 92.8145 42.9568 92.8145C42.232 92.8396 41.5064 92.8046 40.787 92.7097ZM44.1469 88.3887C44.3275 87.9391 44.3949 87.4496 44.3428 86.9659C44.3844 86.4836 44.3224 85.9978 44.1614 85.543C43.9872 85.236 43.7042 85.0937 43.16 85.0937C42.0642 85.0937 41.9554 85.2735 41.9554 86.9659C41.9554 88.6583 42.0642 88.8081 43.16 88.8081C43.7187 88.8081 44.0018 88.6808 44.1469 88.3887ZM53.8201 87.4976H49.9015C49.9015 88.7856 49.9886 88.9953 51.6649 88.9953C52.1801 88.9953 52.9856 88.9429 53.5734 88.883V90.1036C52.8169 90.2459 52.0491 90.3136 51.2803 90.3058C48.4937 90.3058 48.2615 89.3922 48.2615 86.9734C48.2615 84.5545 48.53 83.611 51.1641 83.611C53.7983 83.611 53.8346 84.6294 53.8346 86.9734L53.8201 87.4976ZM49.9015 86.4342H52.2672C52.2672 85.1012 52.0204 84.9365 51.1206 84.9365C50.0321 84.9365 49.9523 85.2061 49.9015 86.4342ZM56.0842 83.7458H57.6226L57.6734 84.562H57.7678C57.9633 84.2341 58.2474 83.9723 58.5852 83.8086C58.9229 83.645 59.2996 83.5867 59.669 83.6409C61.3816 83.6409 61.6429 84.5246 61.6429 86.1796V90.2384H60.0028V86.8011C60.0028 85.221 59.9085 85.1087 58.9216 85.1087C57.9347 85.1087 57.7242 85.603 57.7242 86.876V90.2384H56.0842V83.7458ZM65.801 89.4296H65.7139L65.6632 90.2309H64.1247V80.7803H65.7647V84.4572H65.8518C66.0583 84.1593 66.3399 83.9256 66.6663 83.7817C66.9926 83.6378 67.3509 83.5891 67.7022 83.6409C69.2334 83.6409 69.814 84.3898 69.814 86.9884C69.814 89.5869 69.2189 90.3358 67.6369 90.3358C67.2793 90.378 66.9174 90.3154 66.5927 90.1551C66.268 89.9948 65.9936 89.7434 65.801 89.4296ZM68.1739 86.9809C68.1739 85.2809 68.0506 85.1012 66.9621 85.1012C66.4468 85.1012 66.1493 85.2135 65.9897 85.4981C65.7859 85.9675 65.7082 86.4848 65.7647 86.9958C65.714 87.5067 65.7915 88.0225 65.9897 88.4936C66.1493 88.7706 66.4468 88.8905 66.9621 88.8905C68.0506 88.8905 68.1522 88.7182 68.1522 86.9809H68.1739ZM77.4117 87.4976H73.486C73.486 88.7856 73.5729 88.9953 75.2492 88.9953C75.7717 88.9953 76.57 88.9429 77.1651 88.883V90.1036C76.4086 90.2459 75.6407 90.3136 74.8719 90.3058C72.0853 90.3058 71.8458 89.3922 71.8458 86.9734C71.8458 84.5545 72.1216 83.611 74.7485 83.611C77.3755 83.611 77.4263 84.6294 77.4263 86.9734L77.4117 87.4976ZM73.486 86.4342H75.8588C75.8588 85.1012 75.6121 84.9365 74.7122 84.9365C73.6382 84.9365 73.5005 85.2061 73.486 86.4342ZM79.7049 83.7458H81.2724V84.8616H81.3739C81.7077 83.8881 82.3754 83.6334 83.3841 83.6334V85.251C81.7658 85.251 81.3231 85.8651 81.3231 87.6324V90.2309H79.6831L79.7049 83.7458ZM85.4522 92.7097V91.4591H87.2301C88.9209 91.4591 89.0299 91.2194 89.0299 89.7666V89.3548H88.9572C88.7613 89.6555 88.4871 89.8931 88.1662 90.0401C87.8452 90.1872 87.4906 90.2378 87.143 90.186C85.5683 90.186 84.966 89.4371 84.966 86.9135C84.966 84.3898 85.5683 83.5735 87.143 83.5735C87.5048 83.5252 87.8724 83.5865 88.201 83.7501C88.5296 83.9136 88.805 84.1723 88.9935 84.4946H89.0951L89.1459 83.6784H90.6698V89.4296C90.6698 91.7811 90.4376 92.8145 87.622 92.8145C86.8972 92.8321 86.1722 92.7971 85.4522 92.7097ZM88.8339 88.3887C89.0145 87.9391 89.082 87.4496 89.0299 86.9659C89.0714 86.4836 89.0094 85.9978 88.8484 85.543C88.6742 85.236 88.3913 85.0937 87.847 85.0937C86.7513 85.0937 86.6352 85.2735 86.6352 86.9659C86.6352 88.6583 86.7513 88.8081 87.847 88.8081C88.4131 88.8081 88.6743 88.6808 88.8339 88.3887ZM96.8308 85.8576C96.8308 82.3454 97.4839 81.3644 100.568 81.3644C101.507 81.3776 102.444 81.4703 103.369 81.6415V83.0568C102.664 82.9545 101.954 82.8895 101.243 82.8621C98.9279 82.8621 98.5941 82.9145 98.5941 85.8576C98.5941 88.4561 98.8264 88.853 100.626 88.853C100.994 88.8616 101.363 88.844 101.729 88.8006V86.6738H100.328V85.2285H103.405V90.0212C102.469 90.2044 101.52 90.3021 100.568 90.3133C97.4548 90.3358 96.8308 89.512 96.8308 85.8576ZM105.909 83.7458H107.454L107.505 84.8691H107.599C107.933 83.8955 108.601 83.6409 109.61 83.6409V85.2585C107.999 85.2585 107.549 85.8725 107.549 87.6399V90.2384H105.909V83.7458ZM111.25 86.9809C111.25 84.3598 111.409 83.6409 114.152 83.6409C116.895 83.6409 117.055 84.3898 117.055 86.9809C117.055 89.5719 116.888 90.3358 114.152 90.3358C111.416 90.3358 111.25 89.6019 111.25 86.9809ZM115.371 86.9809C115.371 85.1986 115.371 85.0039 114.138 85.0039C112.904 85.0039 112.904 85.1986 112.904 86.9809C112.904 88.7632 112.904 88.9803 114.138 88.9803C115.371 88.9803 115.371 88.7632 115.371 86.9809ZM119.268 87.8046V83.7458H120.908V87.1831C120.908 88.7632 121.017 88.8755 122.004 88.8755C122.991 88.8755 123.187 88.3812 123.187 87.1082V83.7458H124.834V90.2384H123.325L123.245 89.4296H123.143C122.949 89.7563 122.666 90.0169 122.329 90.1792C121.992 90.3416 121.617 90.3986 121.249 90.3433C119.537 90.3358 119.268 89.4297 119.268 87.8046ZM127.309 83.7458H128.854L128.905 84.562H128.992C129.183 84.2398 129.459 83.9813 129.789 83.8179C130.119 83.6544 130.487 83.593 130.85 83.6409C132.403 83.6409 133.027 84.3898 133.027 86.9809C133.027 89.5719 132.447 90.3358 130.915 90.3358C130.562 90.3949 130.2 90.3504 129.87 90.2074C129.541 90.0644 129.257 89.8286 129.05 89.527H128.949V92.7696H127.309V83.7458ZM131.358 86.9884C131.358 85.2735 131.235 85.0937 130.146 85.0937C129.566 85.0937 129.275 85.251 129.123 85.588C128.971 86.0373 128.912 86.5142 128.949 86.9884C128.918 87.4588 128.972 87.9311 129.108 88.3812C129.261 88.7332 129.566 88.8755 130.146 88.8755C131.235 88.8755 131.358 88.7107 131.358 86.9884Z" fill="white"/>
<path d="M266.677 83.2344H225.251V138.361C225.251 146.389 222.159 154.089 216.656 159.766C211.152 165.444 203.688 168.633 195.905 168.633C188.122 168.633 180.658 165.444 175.154 159.766C169.651 154.089 166.559 146.389 166.559 138.361H125.002C124.935 147.957 126.701 157.473 130.199 166.365C133.698 175.257 138.859 183.351 145.39 190.185C151.921 197.019 159.692 202.459 168.261 206.195C176.83 209.931 186.028 211.89 195.331 211.959C204.633 212.028 213.858 210.206 222.478 206.597C231.098 202.989 238.944 197.664 245.569 190.927C252.195 184.19 257.469 176.174 261.09 167.334C264.712 158.495 266.61 149.007 266.677 139.41V83.2344Z" fill="white"/>
<path d="M266.684 40.5078H308.11V83.2409H266.684V40.5078Z" fill="white"/>
<path d="M225.328 0H266.754V42.7331H225.328V0Z" fill="white"/>
</svg>
