<svg width="128" height="209" viewBox="0 0 128 209" fill="none" xmlns="http://www.w3.org/2000/svg">
<g id="weird logo">
<path id="Vector" d="M78.5159 155.331C78.489 158.287 77.6099 161.168 75.9894 163.612C74.3689 166.056 72.0796 167.953 69.4101 169.063C66.7407 170.174 63.8106 170.448 60.9893 169.852C58.1679 169.256 55.5817 167.816 53.5568 165.714C51.5318 163.612 50.1588 160.941 49.6108 158.039C49.0628 155.137 49.3642 152.134 50.4773 149.408C51.5904 146.681 53.4652 144.354 55.8653 142.72C58.2654 141.086 61.0833 140.217 63.9638 140.224C65.8879 140.228 67.7921 140.623 69.5667 141.386C71.3414 142.149 72.9515 143.265 74.3041 144.669C75.6567 146.074 76.7252 147.739 77.4481 149.568C78.1709 151.398 78.5338 153.357 78.5159 155.331ZM35.2676 49.9628L24.7955 39.2166L38.3616 25.2954L74.7419 62.6279L87.0499 49.9628L38.3616 0L0.111328 39.2166L22.9255 62.5931L35.2676 49.9628Z" fill="#4371B7"/>
<path id="Vector_2" d="M78.9441 36.0453L89.3481 25.3689L102.914 39.2901L66.636 76.5528L78.9781 89.218L127.564 39.2901L89.3481 0.0385742L66.636 23.3801L78.9441 36.0453ZM84.6221 100.627L53.1379 68.1094L40.8298 80.7397L89.0762 130.284C93.7865 135.329 96.9484 141.684 98.1691 148.558C99.3899 155.432 98.6157 162.523 95.9426 168.949C93.2696 175.376 88.8156 180.854 83.1338 184.705C77.4521 188.556 70.7931 190.609 63.984 190.609C57.1749 190.609 50.5159 188.556 44.8342 184.705C39.1524 180.854 34.6983 175.376 32.0252 168.949C29.3522 162.523 28.578 155.432 29.7988 148.558C31.0195 141.684 34.1815 135.329 38.8918 130.284L61.264 107.291L48.9558 94.626L26.4138 118.002C19.2837 125.566 14.4814 135.117 12.6062 145.463C10.7309 155.809 11.8656 166.493 15.8686 176.182C19.8716 185.87 26.5657 194.135 35.1162 199.946C43.6666 205.756 53.6948 208.854 63.95 208.854C74.2051 208.854 84.2333 205.756 92.7837 199.946C101.334 194.135 108.028 185.87 112.031 176.182C116.034 166.493 117.169 155.809 115.294 145.463C113.418 135.117 108.616 125.566 101.486 118.002L84.6221 100.627Z" fill="#4371B7"/>
<path id="Vector_3" d="M61.1418 54.3297L48.7997 41.6646L11.5014 79.9391L0.111328 68.2509V104.921H35.8116L23.8095 92.6043L61.1418 54.3297ZM116.29 79.9391L104.866 68.2509L92.524 80.916L103.948 92.6043L91.9459 104.921H127.646V68.2509L116.29 79.9391Z" fill="#4371B7"/>
</g>
</svg>
