<svg width="350" height="350" viewBox="0 0 350 350" fill="none" xmlns="http://www.w3.org/2000/svg">
<rect width="350" height="350" fill="#4371B7"/>
<path d="M224.677 152.234H183.251V207.361C183.251 215.389 180.159 223.089 174.656 228.766C169.152 234.444 161.688 237.633 153.905 237.633C146.122 237.633 138.658 234.444 133.154 228.766C127.651 223.089 124.559 215.389 124.559 207.361H83.0018C82.935 216.957 84.7011 226.473 88.1993 235.365C91.6975 244.257 96.8593 252.351 103.39 259.185C109.921 266.019 117.692 271.459 126.261 275.195C134.83 278.931 144.028 280.89 153.331 280.959C162.633 281.028 171.858 279.206 180.478 275.597C189.098 271.989 196.944 266.664 203.569 259.927C210.195 253.19 215.469 245.174 219.09 236.334C222.712 227.495 224.61 218.007 224.677 208.41V152.234Z" fill="white"/>
<path d="M224.684 109.508H266.11V152.241H224.684V109.508Z" fill="white"/>
<path d="M183.328 69H224.754V111.733H183.328V69Z" fill="white"/>
</svg>
