<svg width="53" height="53" viewBox="0 0 53 53" fill="none" xmlns="http://www.w3.org/2000/svg">
<g id="Featured icon">
<rect x="2.5" y="2.5" width="48" height="48" rx="24" fill="#5785CB"/>
<path id="Vector" d="M19.6562 37.5C19.1406 37.5 18.6992 37.3205 18.332 36.9615C17.9648 36.6024 17.7812 36.1708 17.7812 35.6667V18.25H16.5V16.4167H22.375V15.5H30.625V16.4167H36.5V18.25H35.2188V35.6667C35.2188 36.1556 35.0312 36.5833 34.6562 36.95C34.2812 37.3167 33.8438 37.5 33.3438 37.5H19.6562ZM33.3438 18.25H19.6562V35.6667H33.3438V18.25ZM22.9688 33.0389H24.8438V20.8472H22.9688V33.0389ZM28.1562 33.0389H30.0312V20.8472H28.1562V33.0389Z" fill="white"/>
<rect x="2.5" y="2.5" width="48" height="48" rx="24" stroke="#93C1FF" stroke-width="5"/>
</g>
</svg>
